<mxfile host="app.diagrams.net" modified="2024-06-11T16:11:33.902Z" agent="Mozilla/5.0 (Windows NT 10.0; Win64; x64) AppleWebKit/537.36 (KHTML, like Gecko) Chrome/125.0.0.0 Safari/537.36" version="24.5.3" etag="NCtpe9dQDtCazJ4yrKU7" type="github">
  <diagram name="Страница — 1" id="bLKNfVl6g2ZhTKFIcze6">
    <mxGraphModel>
      <root>
        <mxCell id="0" />
        <mxCell id="1" parent="0" />
      </root>
    </mxGraphModel>
  </diagram>
</mxfile>
